<svg width="178" height="179" viewBox="0 0 178 179" fill="none" xmlns="http://www.w3.org/2000/svg">
<path d="M52.033 104.744C62.3388 104.756 72.4166 101.695 80.9915 95.9474C89.5663 90.2001 96.2528 82.0249 100.205 72.4563C104.157 62.8876 105.198 52.3555 103.194 42.1923C101.191 32.0291 96.2346 22.6916 88.9516 15.3611C81.6686 8.03062 72.3864 3.03659 62.2795 1.01083C52.1726 -1.01493 41.6951 0.0186247 32.1726 3.98072C22.6501 7.94282 14.5105 14.6554 8.78368 23.2693C3.05681 31.8831 7.06541e-06 42.0111 0 52.3719C-9.46477e-06 66.2512 5.48008 79.5629 15.2364 89.3828C24.9927 99.2026 38.2274 104.728 52.033 104.744V104.744Z" fill="#F4C222"/>
<path d="M115.473 178.888V116.152L177.876 178.888H115.473Z" fill="#5C5CE5"/>
<path d="M177.876 53.4774L53.131 178.888H0L177.876 0.0629883V53.4774Z" fill="#E54C4C"/>
</svg>
