<svg xmlns="http://www.w3.org/2000/svg" xml:space="preserve" id="Icons" x="0" y="0" version="1.1" viewBox="0 0 48 48">
  <style>
    .st3{fill:none;stroke:#45413c;stroke-linecap:round;stroke-linejoin:round;stroke-miterlimit:10}.st14{fill:#fff}.st26{fill:#e8f4fa}.st50{fill:#bdbec0;stroke:#45413c;stroke-linecap:round;stroke-linejoin:round;stroke-miterlimit:10}
  </style>
  <g id="XMLID_17461_">
    <ellipse id="XMLID_17478_" cx="24" cy="44.4" fill="#45413c" opacity=".15" rx="17.6" ry="1.6"/>
    <path id="XMLID_17477_" d="M36.1 43.5H11.9c-1.8 0-3.3-1.5-3.3-3.3v-4.4h30.8v4.4c0 1.8-1.5 3.3-3.3 3.3z" class="st50"/>
    <path id="XMLID_17476_" d="M36.1 41.3H11.9c-1.8 0-3.3-1.5-3.3-3.3v-4.4h30.8V38c0 1.8-1.5 3.3-3.3 3.3z" class="st50"/>
    <path id="XMLID_17475_" fill="#fff" stroke="#45413c" stroke-linecap="round" stroke-linejoin="round" stroke-miterlimit="10" d="M36.1 39.1H11.9c-1.8 0-3.3-1.5-3.3-3.3V16h30.8v19.8c0 1.8-1.5 3.3-3.3 3.3z"/>
    <path id="XMLID_17474_" fill="#ff6242" d="M39.4 16H8.6v-6c0-1.8 1.5-3.3 3.3-3.3h24.2c1.8 0 3.3 1.5 3.3 3.3v6z"/>
    <path id="XMLID_17473_" fill="#ff866e" d="M36.1 6.7H11.9c-1.8 0-3.3 1.5-3.3 3.3v2.7c0-1.8 1.5-3.3 3.3-3.3h24.2c1.8 0 3.3 1.5 3.3 3.3V10c0-1.9-1.5-3.3-3.3-3.3z"/>
    <path id="XMLID_17472_" d="M39.4 16H8.6v-6c0-1.8 1.5-3.3 3.3-3.3h24.2c1.8 0 3.3 1.5 3.3 3.3v6z" class="st3"/>
    <path id="XMLID_17471_" d="M15.2 9.4c-.6 0-1.1-.5-1.1-1.1V5c0-.6.5-1.1 1.1-1.1.6 0 1.1.5 1.1 1.1v3.3c0 .6-.5 1.1-1.1 1.1z" class="st26"/>
    <path id="XMLID_17470_" d="M24 9.4c-.6 0-1.1-.5-1.1-1.1V5c0-.6.5-1.1 1.1-1.1.6 0 1.1.5 1.1 1.1v3.3c0 .6-.5 1.1-1.1 1.1z" class="st26"/>
    <path id="XMLID_17469_" d="M32.8 9.4c-.6 0-1.1-.5-1.1-1.1V5c0-.6.5-1.1 1.1-1.1.6 0 1.1.5 1.1 1.1v3.3c0 .6-.5 1.1-1.1 1.1z" class="st26"/>
    <path id="XMLID_17468_" d="M15.2 3.9c-.6 0-1.1.5-1.1 1.1v1.6c0-.6.5-1.1 1.1-1.1s1.1.5 1.1 1.1V5c0-.6-.5-1.1-1.1-1.1z" class="st14"/>
    <path id="XMLID_17467_" d="M24 3.9c-.6 0-1.1.5-1.1 1.1v1.6c0-.6.5-1.1 1.1-1.1.6 0 1.1.5 1.1 1.1V5c0-.6-.5-1.1-1.1-1.1z" class="st14"/>
    <path id="XMLID_17466_" d="M32.8 3.9c-.6 0-1.1.5-1.1 1.1v1.6c0-.6.5-1.1 1.1-1.1s1.1.5 1.1 1.1V5c0-.6-.5-1.1-1.1-1.1z" class="st14"/>
    <path id="XMLID_17465_" d="M15.2 9.4h0c-.6 0-1.1-.5-1.1-1.1V5c0-.6.5-1.1 1.1-1.1h0c.6 0 1.1.5 1.1 1.1v3.3c0 .6-.5 1.1-1.1 1.1z" class="st3"/>
    <path id="XMLID_17464_" d="M24 9.4h0c-.6 0-1.1-.5-1.1-1.1V5c0-.6.5-1.1 1.1-1.1h0c.6 0 1.1.5 1.1 1.1v3.3c0 .6-.5 1.1-1.1 1.1z" class="st3"/>
    <path id="XMLID_17463_" d="M32.8 9.4h0c-.6 0-1.1-.5-1.1-1.1V5c0-.6.5-1.1 1.1-1.1h0c.6 0 1.1.5 1.1 1.1v3.3c0 .6-.5 1.1-1.1 1.1z" class="st3"/>
    <path id="XMLID_17462_" fill="#45413c" d="M17.9 32.2v-9.1h-1.1c-.4 0-.7-.1-.9-.4-.2-.2-.3-.5-.3-.9 0-.3.1-.6.3-.9.2-.3.5-.4.9-.4h2.6c.4 0 .7.1.9.4.2.2.3.5.3.9v10.3c0 .4-.1.8-.4 1-.2.2-.6.4-1 .4s-.7-.1-1-.4c-.1-.1-.3-.5-.3-.9zm5.7-.5 4.5-8.5h-4.6c-.4 0-.8-.1-1-.4-.2-.2-.3-.5-.3-.9s.1-.6.3-.9c.2-.2.5-.4 1-.4H30c.4 0 .7.1 1 .4.2.3.3.6.3.9 0 .2 0 .3-.1.5s-.2.4-.3.7l-4.5 9.1c-.2.4-.4.7-.5.9-.1.2-.3.3-.4.4-.2.1-.4.1-.6.1-.5 0-.8-.1-1.1-.4-.3-.3-.4-.6-.4-.9 0-.1.1-.4.2-.6z"/>
  </g>
</svg>